<?xml version="1.0" standalone="no"?><!DOCTYPE svg PUBLIC "-//W3C//DTD SVG 1.1//EN" "http://www.w3.org/Graphics/SVG/1.1/DTD/svg11.dtd"><svg t="1789629499752" class="icon" viewBox="0 0 1024 1024" version="1.1" xmlns="http://www.w3.org/2000/svg" p-id="25045" xmlns:xlink="http://www.w3.org/1999/xlink" width="64" height="64"><path d="M429.482667 975.061333H365.781333v-280.234666h29.525334c26.453333 0 48.128-21.162667 48.64-47.658667v-199.424a48.213333 48.213333 0 0 0-48.64-47.658667H239.872a48.213333 48.213333 0 0 0-48.64 47.658667v198.912a48.213333 48.213333 0 0 0 48.64 48.213333h29.525333v280.192H205.696v-224.298666A110.336 110.336 0 0 1 128 647.168v-199.424a109.824 109.824 0 0 1 111.36-108.8h155.392a110.848 110.848 0 0 1 111.914667 108.8v198.912a109.824 109.824 0 0 1-77.696 103.594667l0.512 224.853333z m447.018666-80.298666a59.050667 59.050667 0 1 1 60.586667-59.050667 59.562667 59.562667 0 0 1-60.586667 59.050667z m-236.117333-33.066667l-0.085333-0.085333a27.434667 27.434667 0 0 1-11.392-13.952 60.586667 60.586667 0 0 1-3.626667-12.970667V541.013333h-45.056a29.525333 29.525333 0 0 1-21.76-9.813333 29.013333 29.013333 0 0 1-8.277333-22.272 31.061333 31.061333 0 0 1 30.037333-29.525333h45.056V186.154667a33.152 33.152 0 0 1 32.64-32.128h80.298667c17.152 0 31.061333 13.952 31.061333 31.104a31.573333 31.573333 0 0 1-30.549333 29.525333H686.933333v264.192h51.797334a31.573333 31.573333 0 0 1 31.573333 31.061333 31.061333 31.061333 0 0 1-31.573333 30.549334H686.933333v263.68h51.797334a31.573333 31.573333 0 0 1 31.573333 31.061333 32.128 32.128 0 0 1-31.573333 31.104h-78.165334a37.845333 37.845333 0 0 1-20.181333-4.608m236.117333-292.224a59.050667 59.050667 0 1 1 60.586667-60.586667c0.597333 33.706667-26.88 61.184-60.586667 60.586667zM446.037333 169.088a127.957333 127.957333 0 0 1-128.981333 126.378667 128.426667 128.426667 0 0 1-129.493333-126.378667A128.426667 128.426667 0 0 1 317.056 42.666667a127.445333 127.445333 0 0 1 128.981333 126.421333z m-63.146666 0a66.304 66.304 0 0 0-132.138667 0 66.304 66.304 0 0 0 132.096 0z m495.701333 74.069333h-4.138667a59.562667 59.562667 0 0 1-60.117333-58.538666 59.562667 59.562667 0 0 1 60.117333-59.050667h4.138667A59.562667 59.562667 0 0 1 938.666667 184.618667a59.562667 59.562667 0 0 1-60.074667 59.050666v-0.512z" p-id="25046"></path></svg>